# xmcd CD database file
#
# Track frame offsets:
#	182
#	11050
#	36395
#	50062
#	62850
#	87447
#	99842
#	109360
#	128505
#	149710
#	158730
#	183785
#	198980
#	210947
#
# Disc length: 2995 seconds
#
# Revision: 2
# Processed by: cddbd v1.5.1PL0 Copyright (c) Steve Scherf et al.
# Submitted via: CDex 1.51
#
DISCID=c30bb10e
DTITLE=Eddie Boyd - 7936 South Rhodes
DYEAR=1968
DGENRE=R&B
TTITLE0=You Got To Reap
TTITLE1=Just The Blues
TTITLE2=She's Real
TTITLE3=Black Slack
TTITLE4=Be Careful
TTITLE5=Ten To One
TTITLE6=The Blues Is Here To Stay
TTITLE7=You Are My Love
TTITLE8=Third Degree
TTITLE9=Thank You Baby
TTITLE10=She's Gone
TTITLE11=(I Can't Stop) Loving You
TTITLE12=The Big Boat
TTITLE13=Sent For You
EXTD=YEAR: 1968
EXTT0=
EXTT1=
EXTT2=
EXTT3=
EXTT4=
EXTT5=
EXTT6=
EXTT7=
EXTT8=
EXTT9=
EXTT10=
EXTT11=
EXTT12=
EXTT13=
PLAYORDER=
